<svg id="Слой_1" data-name="Слой 1" xmlns="http://www.w3.org/2000/svg" xmlns:xlink="http://www.w3.org/1999/xlink" viewBox="0 0 24 25"><defs><style>.cls-1{fill:#fff;}.cls-2{clip-path:url(#clip-path);}</style><clipPath id="clip-path" transform="translate(-138 -28)"><rect class="cls-1" x="138" y="28" width="24" height="25"/></clipPath></defs><title>right</title><rect class="cls-1" width="24" height="25"/><g class="cls-2"><path class="cls-1" d="M148.67,52.58a2,2,0,0,1-1.42-3.41l8.88-8.88-8.88-8.88a2,2,0,0,1,2.83-2.82l11.7,11.7L150.08,52a2,2,0,0,1-1.41.58ZM141.41,52l11.71-11.71-11.71-11.7a2,2,0,0,0-2.82,2.82l8.87,8.88-8.87,8.88A2,2,0,0,0,140,52.58a2,2,0,0,0,1.41-.58Zm0,0" transform="translate(-138 -28)"/></g></svg>